<?xml version="1.0" encoding="utf-8"?>
<!-- Generator: Adobe Illustrator 24.0.1, SVG Export Plug-In . SVG Version: 6.00 Build 0)  -->
<svg version="1.1" id="Layer_1" xmlns="http://www.w3.org/2000/svg" xmlns:xlink="http://www.w3.org/1999/xlink" x="0px" y="0px"
	 viewBox="0 0 135 135" style="enable-background:new 0 0 135 135;" xml:space="preserve">
<style type="text/css">
	.st0{fill:#FFFFFF;}
	.st1{fill:#B7674A;}
	.st2{fill:#023C80;}
	.st3{fill:#0B58B1;}
	.st4{fill:#BECFFC;}
	.st5{fill:#93A5D6;}
</style>
<rect x="-0.2" y="0.2" class="st0" width="135" height="135"/>
<g>
	<path class="st1" d="M66.1,115.1c-27.4,0-49.6-22.9-49.6-50.9s22.2-50.9,49.6-50.9c27.3,0,49.6,22.9,49.6,50.9
		S93.3,115.1,66.1,115.1z M66.1,16.5c-25.6,0-46.3,21.4-46.3,47.6s20.7,47.6,46.3,47.6s46.3-21.4,46.3-47.6
		C112.2,37.9,91.6,16.5,66.1,16.5z"/>
	<g id="planet-earth" transform="translate(60.191 60.191)">
		
			<ellipse id="Ellipse_16" transform="matrix(0.9264 -0.3764 0.3764 0.9264 -0.9888 2.6124)" class="st2" cx="6.2" cy="3.8" rx="27.1" ry="27.1"/>
		<g id="Group_241" transform="translate(75.362)">
			<path id="Path_1597" class="st3" d="M-69.2-23.3c-3.7,0-7.3,0.7-10.6,2.2c-0.1,0.9-0.9,2.4-0.9,2.9c0.1,0,6.9-6.9,6.1-2.2
				c-0.5,3-6.1,3-5.9,6c5.8,2.3,7.9-4.3,12.8-4.3c1.7,0,5.9-2.6,6.7-2.1c3.3,2.2-0.7,9.8-3.3,7.3C-66.6-16-70-12.8-69.9-9
				c1.3,0.1,1.8-3.6,2.9-2.3c1.2,1.3,0.8,4-0.9,4.6c-1.7,0.6-8.5-4.6-6.8-0.6c1.8,4.4-5.5,7.7,1.9,6c3.5-0.8,2.3,1.8,4,3.1
				c2,1.5,1.1-2.1,2.5-1.5c2.1,0.8-0.4,2.9,2.9,1.4c3.8-1.7,2.4,1,3.5,2.7c2.2,3.3,7.6,6.5,10.4,2.1c0.7-1,0.2-9.2,4.4-3.7
				c2.7,3.5,1.7-4.1,2.1-6.1C-46.3-15.2-57-23.3-69.2-23.3z"/>
		</g>
		<path id="Path_1598" class="st4" d="M9.9,16.1l-5-3.8l-3.4,0.1L-2,11.4l-2.7-1.9l-6.2,1.4l-2.5,1.2l-2.8,3.8l1,4.5
			c0.3,0.4,0.6,0.7,0.9,1.1l5.2,2.5l3.5,0.5l2.1,4.3l0.1,0.4c3.1,1.2,6.3,1.8,9.6,1.8c2.3,0,4.6-0.3,6.8-0.8l0.7-4.3l3.2-2.6
			l1.3-4.2l-6.8,0L9.9,16.1z"/>
		<path class="st5" d="M11.1,25.5c-1.7,0.3-3.4,0.4-5.1,0c-0.9-0.2-1.8-0.6-2.5-1.2c-0.9-0.6-1.6-1.2-2.3-2.1
			c-0.6-0.8-0.7-1.8-1.1-2.6c-0.2-0.4-0.7-2.3-1.1-2.3c0,0-3.7-0.5-3.7-0.5l-5.5-2.6c-0.3-0.4-0.6-0.8-0.9-1.1l-0.4-1.8l-1.8,0.9
			l-2.8,3.8l1,4.5c0.3,0.4,0.6,0.7,0.9,1.1l5.2,2.5l3.5,0.5l2.1,4.3l0.1,0.4c3.1,1.2,6.3,1.8,9.6,1.8c2.3,0,4.6-0.3,6.8-0.8l0.7-4.3
			l2.8-2.2C14.5,24.6,12.8,25.2,11.1,25.5z"/>
		<path class="st3" d="M8.5,28.6c-1.4,0.1-3,0-4.4-0.2c-1.5-0.2-2.5-0.6-3.7-1.6c-0.2-0.2-0.4-0.5-0.7-0.7c-0.3-0.2-0.5-0.6-0.7-0.9
			C-1,25.1-1.1,25-1.2,24.8c-0.1-0.2-0.2-0.4-0.3-0.5c-0.4-0.7-0.7-1.5-1.1-2.2c-0.2-0.4-0.4-0.8-0.6-1.2c-0.1-0.1-0.1-0.4-0.3-0.4
			c-0.2-0.1-0.4-0.1-0.6-0.1c-0.4-0.1-0.9-0.1-1.3-0.2C-5.9,20.2-6.4,20.2-7,20c-0.6-0.2-1.1-0.4-1.6-0.7c-0.7-0.3-1.4-0.7-2.1-1
			c-0.3-0.2-0.7-0.3-1-0.5c-0.3-0.1-0.6-0.2-0.9-0.4c-0.3-0.2-0.5-0.3-0.7-0.6c-0.2-0.2-0.5-0.5-0.6-0.8c-0.1-0.4-0.2-0.9-0.3-1.3
			c0-0.2-0.1-0.4-0.1-0.6c-0.1-0.3,0.1-0.7,0.3-0.9c0.1-0.1,0.1-0.3,0.2-0.4c0,0,0.1-0.2,0.1-0.2c-0.1,0-0.8,1.1-0.9,1.1
			c-0.1,0.1-0.1,0.1-0.2,0.2c-0.1,0.1-0.2,0.3-0.3,0.4c-0.2,0.3-0.4,0.6-0.7,0.9c-0.1,0.1-0.2,0.3-0.3,0.4c-0.1,0.1-0.2,0.2-0.3,0.4
			c0,0.1,0.1,0.3,0.1,0.4c0,0.2,0.1,0.4,0.1,0.6c0.2,0.7,0.3,1.4,0.5,2.2c0.1,0.3,0.1,0.6,0.2,0.9c0.1,0.3,0.2,0.6,0.4,0.8
			c0.1,0.1,0.2,0.2,0.3,0.3c0.1,0.1,0.2,0.2,0.3,0.3c0.1,0.1,0.3,0.2,0.5,0.2c0.2,0.1,0.4,0.2,0.5,0.3c0.7,0.3,1.3,0.6,2,0.9
			c0.7,0.3,1.3,0.6,2,0.9C-9.3,23.9-9.2,24-9,24c0.2,0,0.4,0,0.6,0.1c0.4,0.1,0.7,0.1,1.1,0.2c0.4,0,0.7,0.1,1.1,0.1
			c0.2,0,0.3,0.1,0.5,0.1c0.1,0,0.2,0,0.2,0.2c0.1,0.3,0.3,0.6,0.5,1c0.2,0.3,0.3,0.7,0.5,1c0.3,0.7,0.6,1.3,1,2
			c0.1,0.1,0.1,0.2,0.2,0.4c0,0.1,0,0.1,0,0.2c0,0.1,0,0.1,0.1,0.2c0.3,0.1,0.6,0.2,0.9,0.3C0.4,30.5,3.3,31,6.3,31
			c1.5,0,3-0.1,4.4-0.4c0.7-0.1,1.5-0.2,2.1-0.4c0.1,0,0.1,0,0.1-0.1c0-0.1,0-0.1,0-0.2c0-0.2,0.1-0.3,0.1-0.5
			c0.1-0.4,0.1-0.7,0.2-1.1c0-0.2,0.1-0.3,0.1-0.5c0-0.1,0-0.1,0-0.2c0-0.1,0-0.1,0-0.2c-0.2,0-0.4,0-0.6,0.1c-0.2,0-0.4,0-0.6,0.1
			c-0.8,0.1-1.5,0.9-2.4,0.9c-0.2,0-0.5,0.1-0.7,0.1C8.9,28.6,8.7,28.6,8.5,28.6z"/>
		<path id="Path_1599" class="st3" d="M-20.6,8.2c0.1,0,0.1,0,0.2,0c1.2-1.2,2.2-1.4,3.2-3.2c1-1.8-0.2-1.8,0-4.9
			c0.2-3-0.2-1.6,0-4.9c0.1-1.2,0-1.8-1.5-2.3C-20.8-2.3-21.4,3-20.6,8.2z"/>
		<path id="Path_1602" class="st5" d="M16.4-21.3c-0.2,3.4-0.3,5.9-0.3,5.9l-5.2,5.2c0,0,4.9,7,5.2,7.8c1.2,2.6,4.2,2.2,5.2,1.3
			c0.7-0.7,3.9-3.1,5.2-1.3c0.9,1.3,0.9,1.6,0.9,2.6c0.4,0,1.6,0.5,2.2,1.1c0.5,0.7,1,2.2,2.3,1.1c0.3-1.7,0.1-4.7,0.3-5.8
			C30.1-11.5,24.2-18.1,16.4-21.3z"/>
		<path id="Path_1603" class="st4" d="M19.6-19.7c-0.2,3.2-0.3,5.8-0.3,5.8l-3.7,3.7c0,0,3.5,5,3.7,5.6C19.5-4,22.5-3.3,23-3.7
			c0.6-0.4,2.8-2.2,3.7-0.9c0.9,1.3,2.3,4.3,3.8,4.7c1.3,0.4,1.1-1.1,1.7-1c0-1,0-2,0.1-2.5C30.4-10.3,25.8-16.2,19.6-19.7z"/>
	</g>
	<ellipse id="Ellipse_13_6_" class="st1" cx="113.3" cy="71.4" rx="9.2" ry="9.2"/>
	<ellipse id="Ellipse_13_5_" class="st1" cx="70.2" cy="112.2" rx="9.2" ry="9.2"/>
	<ellipse id="Ellipse_15_2_" class="st1" cx="37.3" cy="23.7" rx="7.1" ry="7.1"/>
</g>
</svg>
